<?xml version="1.0" encoding="UTF-8" standalone="no"?>
<svg
   xmlns:dc="http://purl.org/dc/elements/1.1/"
   xmlns:cc="http://creativecommons.org/ns#"
   xmlns:rdf="http://www.w3.org/1999/02/22-rdf-syntax-ns#"
   xmlns:svg="http://www.w3.org/2000/svg"
   xmlns="http://www.w3.org/2000/svg"
   xmlns:sodipodi="http://sodipodi.sourceforge.net/DTD/sodipodi-0.dtd"
   xmlns:inkscape="http://www.inkscape.org/namespaces/inkscape"
   viewBox="0 0 800 574"
   id="svg2"
   version="1.1"
   inkscape:version="0.91 r13725"
   sodipodi:docname="git_gitflow_alternative.svg">
  <metadata
     id="metadata142">
    <rdf:RDF>
      <cc:Work
         rdf:about="">
        <dc:format>image/svg+xml</dc:format>
        <dc:type
           rdf:resource="http://purl.org/dc/dcmitype/StillImage" />
      </cc:Work>
    </rdf:RDF>
  </metadata>
  <defs
     id="defs140" />
  <sodipodi:namedview
     pagecolor="#ffffff"
     bordercolor="#666666"
     borderopacity="1"
     objecttolerance="10"
     gridtolerance="10"
     guidetolerance="10"
     inkscape:pageopacity="0"
     inkscape:pageshadow="2"
     inkscape:window-width="1301"
     inkscape:window-height="744"
     id="namedview138"
     showgrid="false"
     inkscape:zoom="1"
     inkscape:cx="408.66817"
     inkscape:cy="262.36414"
     inkscape:window-x="65"
     inkscape:window-y="24"
     inkscape:window-maximized="1"
     inkscape:current-layer="svg2" />
  <style
     id="style4">.st0{display:none;} .st1{display:inline;} .st2{fill:#FFFFFF;} .st3{fill:none;stroke:#9882CE;stroke-width:4;stroke-miterlimit:10;} .st4{fill:#FFFFFF;stroke:#404040;stroke-width:4;stroke-linecap:round;stroke-linejoin:round;stroke-miterlimit:10;} .st5{fill:#FFFFFF;stroke:#404040;stroke-width:4;stroke-miterlimit:10;} .st6{fill:#B3E3FF;stroke:#404040;stroke-width:4;stroke-miterlimit:10;} .st7{fill:#B18BE8;stroke:#404040;stroke-width:4;stroke-miterlimit:10;} .st8{fill:#FFFFFF;stroke:#404040;stroke-width:6;stroke-miterlimit:10;} .st9{fill:#B3E3FF;stroke:#404040;stroke-width:6;stroke-miterlimit:10;} .st10{fill:#404040;} .st11{fill:none;stroke:#404040;stroke-width:4;stroke-linecap:round;stroke-linejoin:round;stroke-miterlimit:10;} .st12{fill:#B18BE8;stroke:#404040;stroke-width:4;stroke-linecap:round;stroke-linejoin:round;stroke-miterlimit:10;} .st13{fill:#444444;} .st14{fill:none;stroke:#404040;stroke-width:4;stroke-miterlimit:10;} .st15{fill:#4ED1A1;stroke:#404040;stroke-width:4;stroke-miterlimit:10;} .st16{fill:none;stroke:#CCCCCC;stroke-width:7;stroke-linecap:round;stroke-linejoin:round;stroke-miterlimit:10;} .st17{fill:#FFFFFF;stroke:#CCCCCC;stroke-width:7;stroke-linecap:round;stroke-linejoin:round;stroke-miterlimit:10;} .st18{fill:none;stroke:#404040;stroke-width:7;stroke-miterlimit:10;} .st19{fill:#B3E3FF;stroke:#404040;stroke-width:7;stroke-miterlimit:10;} .st20{fill:none;stroke:#CCCCCC;stroke-width:8;stroke-linecap:round;stroke-miterlimit:10;} .st21{fill:none;stroke:#404040;stroke-width:8;stroke-linecap:round;stroke-miterlimit:10;} .st22{fill:#FFFFFF;stroke:#404040;stroke-width:4;stroke-linejoin:round;stroke-miterlimit:10;} .st23{fill:#B3E3FF;stroke:#404040;stroke-width:4;stroke-linejoin:round;stroke-miterlimit:10;} .st24{fill:none;stroke:#CCCCCC;stroke-linecap:round;stroke-linejoin:round;stroke-miterlimit:10;} .st25{fill:#999999;} .st26{fill:#4ED1A1;stroke:#404040;stroke-width:4;stroke-linecap:round;stroke-linejoin:round;stroke-miterlimit:10;} .st27{fill:#4CD3D6;stroke:#404040;stroke-width:4;stroke-linejoin:round;stroke-miterlimit:10;} .st28{fill:none;stroke:#59AFE1;stroke-width:4;stroke-miterlimit:10;} .st29{fill:#59AFE1;stroke:#404040;stroke-width:4;stroke-linejoin:round;stroke-miterlimit:10;} .st30{fill:none;stroke:#404040;stroke-width:8;stroke-linecap:round;stroke-linejoin:round;stroke-miterlimit:10;stroke-dasharray:0,30;} .st31{fill:#FFFFFF;stroke:#59AFE1;stroke-width:4;stroke-miterlimit:10;} .st32{fill:#FC8363;stroke:#404040;stroke-width:4;stroke-linecap:round;stroke-linejoin:round;stroke-miterlimit:10;} .st33{fill:#CCCCCC;stroke:#404040;stroke-width:4;stroke-miterlimit:10;} .st34{fill:#FFFFFF;stroke:#6693ED;stroke-width:4;stroke-miterlimit:10;} .st35{fill:none;stroke:#A97CDD;stroke-width:4;stroke-linecap:round;stroke-linejoin:round;stroke-miterlimit:10;} .st36{fill:none;stroke:#B3E3FF;stroke-width:4;stroke-linecap:round;stroke-linejoin:round;stroke-miterlimit:10;} .st37{fill:none;stroke:#4ED1A1;stroke-width:4;stroke-linecap:round;stroke-miterlimit:10;} .st38{fill:none;stroke:#4ED1A1;stroke-width:4;stroke-linecap:round;stroke-linejoin:round;stroke-miterlimit:10;} .st39{fill:#E24B88;stroke:#404040;stroke-width:4;stroke-linecap:round;stroke-linejoin:round;stroke-miterlimit:10;} .st40{fill:none;stroke:#DEEFF8;stroke-width:4;stroke-miterlimit:10;} .st41{fill:none;stroke:#CCCCCC;stroke-width:4;stroke-linecap:round;stroke-linejoin:round;} .st42{fill:none;stroke:#CCCCCC;stroke-width:4;stroke-linecap:round;stroke-linejoin:round;stroke-dasharray:0,14.3051;} .st43{fill:none;stroke:#CCCCCC;stroke-width:4;stroke-linecap:round;stroke-linejoin:round;stroke-dasharray:0,14.1689;} .st44{fill:none;stroke:#CCCCCC;stroke-width:4;stroke-linecap:round;stroke-linejoin:round;stroke-dasharray:0,13.9788;} .st45{fill:none;stroke:#CCCCCC;stroke-width:4;stroke-linecap:round;stroke-linejoin:round;stroke-dasharray:0,14.7877;} .st46{fill:none;stroke:#CCCCCC;stroke-width:4;stroke-linecap:round;stroke-linejoin:round;stroke-dasharray:0,14.9632;} .st47{fill:#B3E3FF;stroke:#404040;stroke-width:4;stroke-linecap:round;stroke-linejoin:round;stroke-miterlimit:10;} .st48{fill:none;stroke:#CCCCCC;stroke-width:4;stroke-linecap:round;stroke-linejoin:round;stroke-dasharray:0,12.543;} .st49{fill:none;stroke:#CCCCCC;stroke-width:4;stroke-linecap:round;stroke-linejoin:round;stroke-dasharray:0,13.6844;} .st50{fill:none;stroke:#CCCCCC;stroke-width:4;stroke-linecap:round;stroke-linejoin:round;stroke-dasharray:0,13.7717;} .st51{fill:none;stroke:#CCCCCC;stroke-width:4;stroke-linecap:round;stroke-linejoin:round;stroke-dasharray:0,13.6492;} .st52{fill:none;stroke:#CCCCCC;stroke-width:4;stroke-linecap:round;stroke-linejoin:round;stroke-dasharray:0,13.907;} .st53{fill:#4CD3D6;stroke:#404040;stroke-width:4;stroke-linecap:round;stroke-linejoin:round;stroke-miterlimit:10;} .st54{fill:none;stroke:#CCCCCC;stroke-width:4;stroke-linecap:round;stroke-linejoin:round;stroke-dasharray:0,14.9858;} .st55{fill:none;stroke:#CCCCCC;stroke-width:4;stroke-linecap:round;stroke-linejoin:round;stroke-dasharray:0,14.0118;} .st56{fill:none;stroke:#CCCCCC;stroke-width:4;stroke-linecap:round;stroke-linejoin:round;stroke-dasharray:0,14.1243;} .st57{fill:none;} .st58{fill:#FFFFFF;stroke:#404040;stroke-width:7;stroke-linecap:round;stroke-linejoin:round;stroke-miterlimit:10;} .st59{fill:#59AFE1;stroke:#404040;stroke-width:7;stroke-linejoin:round;stroke-miterlimit:10;} .st60{fill:#E24B88;stroke:#404040;stroke-width:7;stroke-linecap:round;stroke-linejoin:round;stroke-miterlimit:10;} .st61{fill:none;stroke:#404040;stroke-width:7;stroke-linecap:round;stroke-linejoin:round;stroke-miterlimit:10;} .st62{fill:none;stroke:#CCCCCC;stroke-width:4;stroke-linecap:round;stroke-linejoin:round;stroke-miterlimit:10;} .st63{fill:#FFFFFF;stroke:#CCCCCC;stroke-width:4;stroke-linecap:round;stroke-linejoin:round;stroke-miterlimit:10;} .st64{fill:#F5F5F5;} .st65{fill:#3873AE;} .st66{fill:#75706C;} .st67{fill:none;stroke:#B3E3FF;stroke-width:4;stroke-miterlimit:10;} .st68{fill:#6F6F6F;} .st69{fill:none;stroke:#6F6F6F;stroke-width:2;stroke-miterlimit:10;} .st70{fill:none;stroke:#6F6F6F;stroke-width:3;stroke-miterlimit:10;}</style>
  <path
     class="st14"
     d="M424.4 459.9c0-17 13.8-30.8 30.8-30.8"
     id="path6" />
  <path
     class="st14"
     d="M254.1 459.9c0-17-13.8-30.8-30.8-30.8m-58.8 123h213.9"
     id="path8" />
  <circle
     class="st15"
     cx="315.8"
     cy="552.1"
     r="15.8"
     id="circle10" />
  <circle
     class="st15"
     cx="362.7"
     cy="552.1"
     r="15.8"
     id="circle12" />
  <circle
     class="st15"
     cx="242.5"
     cy="552.1"
     r="15.8"
     id="circle14" />
  <path
     class="st14"
     d="M776.2 429.1h-596.3"
     id="path16" />
  <circle
     class="st7"
     cx="485.2"
     cy="429.1"
     r="15.8"
     id="circle18" />
  <circle
     class="st7"
     cx="315.8"
     cy="429.1"
     r="15.8"
     id="circle20" />
  <circle
     class="st7"
     cx="776.2"
     cy="429.1"
     r="15.8"
     id="circle22" />
  <path
     class="st14"
     d="m 254.1,459.9 c 0,17 13.8,30.8 30.8,30.8 l 107.9,0 M 84.9,275 c 0,17 13.8,30.8 30.8,30.8 l 17.3,0"
     id="path24"
     inkscape:connector-curvature="0"
     style="fill:none;stroke:#404040;stroke-width:4;stroke-miterlimit:10" />
  <circle
     class="st15"
     cx="315.8"
     cy="490.6"
     r="15.8"
     id="circle26" />
  <circle
     class="st15"
     cx="362.7"
     cy="490.6"
     r="15.8"
     id="circle28" />
  <path
     class="st14"
     d="M392.8 490.6h.9c17 0 30.8-13.8 30.8-30.8"
     id="path30" />
  <path
     class="st42"
     d="M57.2 306.1h-35.7"
     id="path32" />
  <path
     class="st41"
     d="M14.3 306.1m762 0"
     id="path34" />
  <path
     class="st43"
     d="M762.1 306.1h-517.2"
     id="path36" />
  <path
     class="st41"
     d="M237.8 306.1m307.7 61.5"
     id="path38" />
  <path
     class="st44"
     d="M531.5 367.6h-510.2"
     id="path40" />
  <path
     class="st41"
     d="M14.3 367.6m762 0"
     id="path42" />
  <path
     class="st45"
     d="M761.5 367.6h-51.8"
     id="path44" />
  <path
     class="st41"
     d="M702.3 367.6m73.9-123"
     id="path46" />
  <path
     class="st46"
     d="M761.3 244.6h-82.3"
     id="path48" />
  <path
     class="st14"
     d="M84.9 275.4c0-17-13.8-30.8-30.8-30.8m157.6 30.4c0 17-13.8 30.8-30.8 30.8h-48m78.8-30.4c0-17 13.8-30.8 30.8-30.8m30.7 184.5c-17 0-30.8-13.8-30.8-30.8v-61.8m0 0c0-17-13.8-30.8-30.8-30.8m-126.7-30.3"
     id="path50" />
  <circle
     class="st15"
     cx="148.7"
     cy="552.1"
     r="15.8"
     id="circle52" />
  <path
     class="st14"
     d="M645 244.6h-605.8"
     id="path54" />
  <circle
     class="st6"
     cx="23.5"
     cy="244.6"
     r="15.8"
     id="circle56"
     style="fill:#b3e3ff;fill-opacity:1" />
  <circle
     class="st6"
     cx="315.8"
     cy="244.6"
     r="15.8"
     id="circle58" />
  <circle
     class="st6"
     cx="645"
     cy="244.6"
     r="15.8"
     id="circle60" />
  <path
     class="st47"
     d="M49 139.1h42.5v37.5h-42.5z"
     id="path62" />
  <path
     class="st10"
     d="M62.6 162.4h-1.2l-2.5-6.3h1.4l1.8 4.8 1.8-4.8h1.3l-2.6 6.3zm4.7-7.3c.5-.8 1.4-1.4 2.6-1.4s2 .5 2.6 1.4c.6.8.8 1.9.8 3.1s-.2 2.2-.8 3.1c-.5.8-1.4 1.4-2.6 1.4s-2-.5-2.6-1.4c-.6-.8-.8-1.9-.8-3.1s.2-2.3.8-3.1zm1.2 5.8c.3.3.7.5 1.3.5s1-.2 1.3-.5c.5-.5.7-1.4.7-2.7s-.2-2.2-.7-2.7c-.3-.3-.7-.5-1.3-.5s-1 .2-1.3.5c-.5.5-.7 1.4-.7 2.7s.2 2.1.7 2.7zm7.3-.3c.5 0 .9.4.9.9s-.4.9-.9.9-.9-.4-.9-.9.4-.9.9-.9zm3.9 1.8v-5.9h-2v-.9c1.2 0 2-.7 2.2-1.6h1.1v8.4h-1.3z"
     id="path64" />
  <path
     class="st11"
     d="M70.3 210.7v-17.6m8.2 11.1l-8.2 8.2-8.1-8.2"
     id="path66" />
  <path
     class="st47"
     d="M294.6 139.1h42.5v37.5h-42.5z"
     id="path68" />
  <path
     class="st10"
     d="M306.5 162.4h-1.2l-2.5-6.3h1.4l1.8 4.8 1.8-4.8h1.3l-2.6 6.3zm4.7-7.3c.5-.8 1.4-1.4 2.6-1.4s2 .5 2.6 1.4c.6.8.8 1.9.8 3.1s-.2 2.2-.8 3.1c-.5.8-1.4 1.4-2.6 1.4s-2-.5-2.6-1.4c-.6-.8-.8-1.9-.8-3.1s.2-2.3.8-3.1zm1.2 5.8c.3.3.7.5 1.3.5s1-.2 1.3-.5c.5-.5.7-1.4.7-2.7s-.2-2.2-.7-2.7c-.3-.3-.7-.5-1.3-.5s-1 .2-1.3.5c-.5.5-.7 1.4-.7 2.7s.2 2.1.7 2.7zm7.3-.3c.5 0 .9.4.9.9s-.4.9-.9.9-.9-.4-.9-.9.4-.9.9-.9zm3-3.8v-.3c0-1.4 1.1-2.7 2.9-2.7 1.8 0 2.8 1.2 2.8 2.6 0 1.1-.6 2-1.6 2.6l-1.7 1.1c-.5.3-.9.7-1 1.2h4.3v1.2h-5.9c0-1.4.6-2.4 2-3.4l1.4-.9c.8-.5 1.2-1.1 1.2-1.8 0-.8-.5-1.5-1.6-1.5s-1.6.8-1.6 1.7v.4l-1.2-.2z"
     id="path70" />
  <path
     class="st11"
     d="M315.8 210.7v-17.6m8.2 11.1l-8.2 8.2-8.1-8.2"
     id="path72" />
  <path
     class="st47"
     d="M623.8 139.1h42.5v37.5h-42.5z"
     id="path74" />
  <path
     class="st10"
     d="M636.8 162.4h-1.2l-2.5-6.3h1.4l1.8 4.8 1.8-4.8h1.3l-2.6 6.3zm5.6 0v-5.9h-2v-.9c1.2 0 2-.7 2.2-1.6h1.1v8.4h-1.3zm4.6-1.8c.5 0 .9.4.9.9s-.4.9-.9.9-.9-.4-.9-.9.4-.9.9-.9zm3.6-5.5c.5-.8 1.4-1.4 2.6-1.4s2 .5 2.6 1.4c.6.8.8 1.9.8 3.1s-.2 2.2-.8 3.1c-.5.8-1.4 1.4-2.6 1.4s-2-.5-2.6-1.4c-.6-.8-.8-1.9-.8-3.1s.3-2.3.8-3.1zm1.3 5.8c.3.3.7.5 1.3.5s1-.2 1.3-.5c.5-.5.7-1.4.7-2.7s-.2-2.2-.7-2.7c-.3-.3-.7-.5-1.3-.5s-1 .2-1.3.5c-.5.5-.7 1.4-.7 2.7s.2 2.1.7 2.7z"
     id="path76" />
  <path
     class="st11"
     d="M645 210.7v-17.6m8.2 11.1l-8.2 8.2-8.1-8.2"
     id="path78" />
  <path
     class="st48"
     d="M64.5 429.1h-43.9"
     id="path80" />
  <path
     class="st41"
     d="M14.3 429.1m246.3 61.5"
     id="path82" />
  <path
     class="st49"
     d="M246.9 490.6h-225.7"
     id="path84" />
  <path
     class="st41"
     d="M14.3 490.6m762 0"
     id="path86" />
  <path
     class="st50"
     d="M762.5 490.6h-337.4"
     id="path88" />
  <path
     class="st41"
     d="M418.2 490.6m-294.7 61.5"
     id="path90" />
  <path
     class="st51"
     d="M109.9 552.1h-88.8"
     id="path92" />
  <path
     class="st41"
     d="M14.3 552.1m762 0"
     id="path94" />
  <path
     class="st52"
     d="M762.3 552.1h-368.5"
     id="path96" />
  <path
     class="st53"
     d="M283.5 5.2h96.2v50h-96.2z"
     id="path98" />
  <path
     class="st10"
     d="M308.8 31.8h-1.6v4.3h-1.5v-10.5h4c2 0 3.3 1.4 3.3 3.2 0 1.5-1 2.7-2.6 3l2.5 4.5h-1.7l-2.4-4.5zm.7-1.3c1.2 0 2-.7 2-1.8s-.8-1.8-2-1.8h-2.2v3.6h2.2zm12.1 3.6c-.4 1.3-1.6 2.3-3.2 2.3-1.9 0-3.6-1.4-3.6-3.9 0-2.3 1.6-3.8 3.5-3.8 2.2 0 3.5 1.5 3.5 3.8v.5h-5.4c0 1.3 1 2.2 2.2 2.2 1.2 0 1.8-.6 2-1.5l1 .4zm-1.4-2.3c0-1-.7-1.8-2-1.8-1.2 0-1.9.9-2 1.8h4zm4 4.4v-10.9h1.4v10.9h-1.4zm10.9-2.1c-.4 1.3-1.6 2.3-3.2 2.3-1.9 0-3.6-1.4-3.6-3.9 0-2.3 1.6-3.8 3.5-3.8 2.2 0 3.5 1.5 3.5 3.8v.5h-5.4c0 1.3 1 2.2 2.2 2.2 1.2 0 1.8-.6 2-1.5l1 .4zm-1.4-2.3c0-1-.7-1.8-2-1.8-1.2 0-1.9.9-2 1.8h4zm5.7.3l2-.3c.4-.1.6-.3.6-.5 0-.7-.5-1.3-1.6-1.3-1 0-1.5.6-1.6 1.5l-1.4-.3c.2-1.4 1.4-2.3 3-2.3 2.2 0 3 1.2 3 2.6v3.5c0 .6.1 1 .1 1.2h-1.5c0-.2-.1-.5-.1-1-.3.5-1 1.2-2.3 1.2-1.5 0-2.4-1-2.4-2.2 0-1.2 1-2 2.2-2.1zm2.5 1v-.3l-2.2.3c-.6.1-1 .4-1 1.1 0 .5.5 1 1.2 1 1.1 0 2-.5 2-2.1zm5 .8c.1.8.7 1.3 1.7 1.3.8 0 1.2-.5 1.2-1 0-.4-.3-.8-.9-.9l-1.2-.3c-1.1-.2-1.8-1-1.8-2 0-1.2 1.2-2.3 2.6-2.3 2 0 2.6 1.3 2.7 1.9l-1.2.5c-.1-.4-.4-1.2-1.5-1.2-.7 0-1.2.5-1.2 1 0 .4.3.8.8.9l1.2.3c1.3.3 2 1.1 2 2.1s-.9 2.2-2.6 2.2c-2 0-2.8-1.3-2.9-2.1l1.1-.4zm13.1.2c-.4 1.3-1.6 2.3-3.2 2.3-1.9 0-3.6-1.4-3.6-3.9 0-2.3 1.6-3.8 3.5-3.8 2.2 0 3.5 1.5 3.5 3.8v.5h-5.4c0 1.3 1 2.2 2.2 2.2 1.2 0 1.8-.6 2-1.5l1 .4zm-1.4-2.3c0-1-.7-1.8-2-1.8-1.2 0-1.9.9-2 1.8h4z"
     id="path100" />
  <path
     class="st12"
     d="M421.3 5.2h96.2v50h-96.2z"
     id="path102" />
  <path
     class="st10"
     d="M441.7 36.2v-10.6h3.7c2.7 0 5.1 1.8 5.1 5.3s-2.4 5.3-5.1 5.3h-3.7zm3.6-1.3c2 0 3.6-1.3 3.6-4s-1.6-4-3.6-4h-2.2v8h2.2zm14-.8c-.4 1.3-1.6 2.3-3.2 2.3-1.9 0-3.6-1.4-3.6-3.9 0-2.3 1.6-3.8 3.4-3.8 2.2 0 3.5 1.5 3.5 3.8v.5h-5.4c0 1.3 1 2.2 2.2 2.2 1.2 0 1.8-.6 2-1.5l1.1.4zm-1.4-2.3c0-1-.7-1.8-2-1.8-1.2 0-1.9.9-2 1.8h4zm7.5 4.4h-1.4l-3-7.2h1.6l2.1 5.6 2.1-5.6h1.5l-2.9 7.2zm10.7-2.1c-.4 1.3-1.6 2.3-3.2 2.3-1.9 0-3.6-1.4-3.6-3.9 0-2.3 1.6-3.8 3.5-3.8 2.2 0 3.5 1.5 3.5 3.8v.5h-5.4c0 1.3 1 2.2 2.2 2.2 1.2 0 1.8-.6 2-1.5l1 .4zm-1.4-2.3c0-1-.7-1.8-2-1.8-1.2 0-1.9.9-2 1.8h4zm4 4.4v-10.9h1.4v10.9h-1.4zm11.4-3.6c0 2.2-1.5 3.8-3.7 3.8s-3.7-1.6-3.7-3.8c0-2.2 1.5-3.8 3.7-3.8 2.1-.1 3.7 1.6 3.7 3.8zm-1.5 0c0-1.7-1-2.6-2.2-2.6-1.2 0-2.2.9-2.2 2.6 0 1.7 1 2.6 2.2 2.6 1.2 0 2.2-1 2.2-2.6zm4 6.4v-10h1.4v1.1c.4-.7 1.2-1.3 2.4-1.3 2.2 0 3.3 1.7 3.3 3.8 0 2.1-1.2 3.8-3.4 3.8-1.1 0-2-.5-2.3-1.2v3.8h-1.4zm3.5-8.9c-1.3 0-2.1 1.1-2.1 2.5 0 1.5.9 2.6 2.1 2.6 1.3 0 2.1-1.1 2.1-2.6.1-1.5-.7-2.5-2.1-2.5z"
     id="path104" />
  <path
     class="st32"
     d="M145.8 5.2h96.2v50h-96.2z"
     id="path106" />
  <path
     class="st10"
     d="M180.9 36.2v-4.7h-5.4v4.7h-1.5v-10.6h1.5v4.5h5.4v-4.5h1.5v10.6h-1.5zm11.5-3.6c0 2.2-1.5 3.8-3.7 3.8s-3.7-1.6-3.7-3.8c0-2.2 1.5-3.8 3.7-3.8 2.2-.1 3.7 1.6 3.7 3.8zm-1.4 0c0-1.7-1-2.6-2.2-2.6s-2.2.9-2.2 2.6c0 1.7 1 2.6 2.2 2.6s2.2-1 2.2-2.6zm5.8-3.6h1.6v1.3h-1.6v3.7c0 .7.3 1 1 1 .2 0 .4 0 .6-.1v1.2c-.1 0-.5.1-1 .1-1.2 0-2-.8-2-2.1v-4h-1.4v-1.1h.4c.8 0 1.1-.5 1.1-1.1v-1.2h1.3v2.3zm7.8-3.6v1.3c-.1 0-.3-.1-.6-.1-.5 0-1.1.2-1.1 1.2v1.2h4.8v7.2h-1.4v-5.9h-3.4v5.9h-1.5v-5.9h-1.3v-1.3h1.3v-1.2c0-1.6 1.1-2.5 2.4-2.5.4 0 .7.1.8.1zm2.3-.2c.6 0 1 .4 1 1s-.5 1-1 1c-.6 0-1-.5-1-1 0-.6.5-1 1-1zm5.5 7.3l-2.6-3.5h1.7l1.8 2.5 1.7-2.5h1.7l-2.6 3.5c.4.6 2.2 3.1 2.7 3.7h-1.7l-1.9-2.7-1.8 2.7h-1.7l2.7-3.7z"
     id="path108" />
  <path
     class="st47"
     d="M8 5.2h96.2v50h-96.2z"
     id="path110" />
  <path
     class="st10"
     d="M42.7 36.2v-8.3l-3.6 8.3h-1.3l-3.6-8.3v8.3h-1.5v-10.6h2l3.8 8.7 3.8-8.7h2v10.6h-1.6zm6.4-4.1l1.9-.3c.4-.1.6-.3.6-.5 0-.7-.5-1.3-1.6-1.3-1 0-1.5.6-1.6 1.5l-1.3-.3c.1-1.4 1.4-2.3 3-2.3 2.2 0 3 1.2 3 2.6v3.5c0 .6.1 1 .1 1.2h-1.4c0-.2-.1-.5-.1-1-.3.5-1 1.2-2.3 1.2-1.5 0-2.4-1-2.4-2.2-.1-1.2.9-2 2.1-2.1zm2.5 1v-.3l-2.2.3c-.6.1-1 .4-1 1.1 0 .5.4 1 1.2 1 1.1 0 2-.5 2-2.1zm5 .8c.1.8.7 1.3 1.7 1.3.8 0 1.2-.5 1.2-1 0-.4-.3-.8-.9-.9l-1.2-.3c-1.1-.2-1.8-1-1.8-2 0-1.2 1.2-2.3 2.6-2.3 2 0 2.6 1.3 2.7 1.9l-1.2.5c-.1-.4-.4-1.2-1.5-1.2-.7 0-1.2.5-1.2 1 0 .4.3.8.8.9l1.2.3c1.3.3 2 1.1 2 2.1s-.9 2.2-2.6 2.2c-2 0-2.8-1.3-2.9-2.1l1.1-.4zm8.8-4.9h1.6v1.3h-1.6v3.7c0 .7.3 1 1 1 .2 0 .4 0 .6-.1v1.2c-.1 0-.5.1-1 .1-1.2 0-2-.8-2-2.1v-4h-1.4v-1.1h.4c.8 0 1.1-.5 1.1-1.1v-1.2h1.3v2.3zm10.4 5.1c-.4 1.3-1.6 2.3-3.2 2.3-1.9 0-3.6-1.4-3.6-3.9 0-2.3 1.6-3.8 3.5-3.8 2.2 0 3.5 1.5 3.5 3.8v.4h-5.4c0 1.3 1 2.2 2.2 2.2 1.2 0 1.8-.6 2-1.5l1 .5zm-1.4-2.3c0-1-.7-1.8-2-1.8-1.2 0-1.9.9-2 1.8h4zm8-1.4h-.6c-1.2 0-2 .6-2 2.2v3.6h-1.4v-7.2h1.4v1.3c.5-1.1 1.4-1.4 2.2-1.4h.5v1.5z"
     id="path112" />
  <path
     class="st26"
     d="M559.1 5.2h96.2v50h-96.2z"
     id="path114" />
  <path
     class="st10"
     d="M581.6 35.7v-10.6h6.5v1.4h-5v3.4h4.5v1.4h-4.5v4.5h-1.5zm14.7-2.1c-.4 1.3-1.6 2.3-3.2 2.3-1.9 0-3.6-1.4-3.6-3.9 0-2.3 1.6-3.8 3.5-3.8 2.2 0 3.5 1.5 3.5 3.8v.5h-5.4c0 1.3 1 2.2 2.2 2.2 1.2 0 1.8-.6 2-1.5l1 .4zm-1.5-2.3c0-1-.7-1.8-2-1.8-1.2 0-1.9.9-2 1.8h4zm5.8.3l2-.3c.4-.1.6-.3.6-.5 0-.7-.5-1.3-1.6-1.3-1 0-1.5.6-1.6 1.5l-1.3-.3c.2-1.4 1.4-2.3 3-2.3 2.2 0 3 1.2 3 2.6v3.6c0 .6.1 1 .1 1.2h-1.4c0-.2-.1-.5-.1-1-.3.5-1 1.2-2.3 1.2-1.5 0-2.4-1-2.4-2.2-.2-1.3.7-2.1 2-2.2zm2.5 1v-.3l-2.2.3c-.6.1-1 .4-1 1.1 0 .5.5 1 1.2 1 1.1 0 2-.5 2-2.1zm6.2-4.1h1.6v1.3h-1.6v3.8c0 .7.3 1 1 1 .2 0 .4 0 .6-.1v1.2c-.1 0-.5.1-1 .1-1.2 0-2-.8-2-2.1v-4h-1.4v-1.3h.4c.8 0 1.1-.5 1.1-1.1v-1.2h1.3v2.4zm6.8 7.4c-1.7 0-2.7-1.3-2.7-2.9v-4.5h1.4v4.3c0 1 .5 1.9 1.6 1.9s1.7-.8 1.7-1.8v-4.3h1.4v5.9c0 .6 0 1.1.1 1.3h-1.3c0-.2-.1-.6-.1-.9-.3.7-1.2 1-2.1 1zm10.7-6h-.6c-1.2 0-2 .6-2 2.2v3.6h-1.4v-7.2h1.4v1.3c.5-1.1 1.4-1.4 2.2-1.4h.5v1.5zm8.4 3.7c-.4 1.3-1.6 2.3-3.2 2.3-1.9 0-3.6-1.4-3.6-3.9 0-2.3 1.6-3.8 3.5-3.8 2.2 0 3.5 1.5 3.5 3.8v.5h-5.4c0 1.3 1 2.2 2.2 2.2 1.2 0 1.8-.6 2-1.5l1 .4zm-1.4-2.3c0-1-.7-1.8-2-1.8-1.2 0-1.9.9-2 1.8h4z"
     id="path116" />
  <path
     class="st26"
     d="M696.8 5.2h96.2v50h-96.2z"
     id="path118" />
  <path
     class="st10"
     d="M719.4 35.7v-10.6h6.5v1.4h-5v3.4h4.5v1.4h-4.5v4.5h-1.5zm14.6-2.1c-.4 1.3-1.6 2.3-3.2 2.3-1.9 0-3.6-1.4-3.6-3.9 0-2.3 1.6-3.8 3.4-3.8 2.2 0 3.5 1.5 3.5 3.8v.5h-5.4c0 1.3 1 2.2 2.2 2.2 1.2 0 1.8-.6 2-1.5l1.1.4zm-1.4-2.3c0-1-.7-1.8-2-1.8-1.2 0-1.9.9-2 1.8h4zm5.8.3l1.9-.3c.4-.1.6-.3.6-.5 0-.7-.5-1.3-1.6-1.3-1 0-1.5.6-1.6 1.5l-1.4-.3c.2-1.4 1.4-2.3 3-2.3 2.2 0 3 1.2 3 2.6v3.6c0 .6.1 1 .1 1.2h-1.4c0-.2-.1-.5-.1-1-.3.5-1 1.2-2.3 1.2-1.5 0-2.4-1-2.4-2.2 0-1.3.9-2.1 2.2-2.2zm2.5 1v-.3l-2.2.3c-.6.1-1 .4-1 1.1 0 .5.4 1 1.2 1 1 0 2-.5 2-2.1zm6.2-4.1h1.6v1.3h-1.6v3.8c0 .7.3 1 1 1 .2 0 .4 0 .6-.1v1.2c-.1 0-.5.1-1 .1-1.2 0-2-.8-2-2.1v-4h-1.4v-1.3h.4c.8 0 1.1-.5 1.1-1.1v-1.2h1.3v2.4zm6.8 7.4c-1.7 0-2.7-1.3-2.7-2.9v-4.5h1.4v4.3c0 1 .5 1.9 1.6 1.9s1.7-.8 1.7-1.8v-4.3h1.4v5.9c0 .6 0 1.1.1 1.3h-1.3c0-.2-.1-.6-.1-.9-.3.7-1.2 1-2.1 1zm10.6-6h-.6c-1.2 0-2 .6-2 2.2v3.6h-1.4v-7.2h1.4v1.3c.5-1.1 1.4-1.4 2.2-1.4h.5v1.5zm8.5 3.7c-.4 1.3-1.6 2.3-3.2 2.3-1.9 0-3.6-1.4-3.6-3.9 0-2.3 1.6-3.8 3.5-3.8 2.2 0 3.5 1.5 3.5 3.8v.5h-5.4c0 1.3 1 2.2 2.2 2.2 1.2 0 1.8-.6 2-1.5l1 .4zm-1.4-2.3c0-1-.7-1.8-2-1.8-1.2 0-1.9.9-2 1.8h4z"
     id="path120" />
  <path
     class="st14"
     d="M84.9 275v123.4c0 17 13.8 30.8 30.8 30.8h95.7"
     id="path122" />
  <circle
     class="st7"
     cx="195.6"
     cy="429.1"
     r="15.7"
     id="circle124" />
  <circle
     class="st7"
     cx="148.7"
     cy="429.1"
     r="15.8"
     id="circle126" />
  <circle
     class="st32"
     cx="148.7"
     cy="306.1"
     r="15.8"
     id="circle128" />
  <path
     class="st14"
     d="M536.5 398.4c0 17-13.8 30.8-30.8 30.8m201-30.8c0 17 13.8 30.8 30.8 30.8h23m-192.4-61.6h-.9c-17 0-30.8 13.8-30.8 30.8m170.3 0c0-17-13.8-30.8-30.8-30.8h-107.8"
     id="path130" />
  <circle
     class="st27"
     cx="645"
     cy="367.6"
     r="15.8"
     id="circle132" />
  <circle
     class="st27"
     cx="598.2"
     cy="367.6"
     r="15.8"
     id="circle134" />
  <path
     class="st14"
     d="M148.7 444.9v91.5m15.8-230.7h47.2m433.3 46.2v-91.5"
     id="path136" />
  <path
     style="fill:#ff0000;stroke-width:4.23500013;stroke-miterlimit:10;stroke-dasharray:none"
     id="path4355"
     d="m 129.65047,470.91663 c 5.66276,2.17009 11.11178,4.85464 16.43735,7.74407 6.18988,3.52184 12.22644,7.30402 18.37769,10.88981 3.87747,2.28967 7.73883,4.70271 11.00692,7.82643 0.58754,0.68907 1.25905,1.29558 1.93051,1.89976 0,0 -4.0419,2.50202 -4.0419,2.50202 l 0,0 c -0.6634,-0.61532 -1.33404,-1.22668 -1.9115,-1.92647 -3.20302,-3.11688 -6.97284,-5.56937 -10.82179,-7.81189 -6.13877,-3.58284 -12.1528,-7.37679 -18.32387,-10.90623 -5.3592,-2.86063 -10.8438,-5.5519 -16.59221,-7.54506 0,0 3.9388,-2.67244 3.9388,-2.67244 z"
     inkscape:connector-curvature="0" />
  <path
     style="fill:#ff0000;stroke-width:4.23500013;stroke-miterlimit:10;stroke-dasharray:none"
     id="path4357"
     d="m 126.43011,503.21388 c 2.64153,-2.0861 5.81939,-3.39554 8.51369,-5.39291 0.71787,-0.53218 1.37052,-1.14712 2.05578,-1.72068 3.57561,-3.74383 7.13268,-7.50643 10.7177,-11.24375 2.19879,-2.48297 4.80395,-4.53387 7.42363,-6.54581 1.60364,-1.36034 3.37779,-2.47599 5.11719,-3.64541 2.07954,-1.50627 4.25101,-2.87534 6.29447,-4.43089 0,0 4.38576,-1.74979 4.38576,-1.74979 l 0,0 c -2.02832,1.56938 -4.18941,2.93749 -6.26463,4.4427 -1.70391,1.22731 -3.57075,2.23048 -5.15169,3.63569 -2.63195,2.01483 -5.29976,4.01421 -7.51113,6.50473 -3.59747,3.74582 -7.20932,7.47378 -10.72531,11.29482 -0.66766,0.58993 -1.29644,1.22702 -2.00297,1.76978 -2.63448,2.02383 -5.84256,3.24054 -8.42646,5.34973 0,0 -4.42603,1.73179 -4.42603,1.73179 z"
     inkscape:connector-curvature="0" />
  <path
     style="fill:#ff0000;stroke-width:4.23500013;stroke-miterlimit:10;stroke-dasharray:none"
     id="path4359"
     d="m 244.04442,472.25654 c -0.88464,0.47231 -1.65273,1.4742 -2.65392,1.41692 -0.81846,-0.0468 1.3337,-0.95431 1.98259,-1.45533 3.23693,-2.49926 6.40351,-4.99085 9.8043,-7.27168 5.22977,-3.02124 9.70736,-7.08168 14.45649,-10.75934 1.93584,-1.3085 3.86225,-2.63082 5.78402,-3.95988 0,0 4.37695,-1.72084 4.37695,-1.72084 l 0,0 c -1.93784,1.33632 -3.86492,2.68966 -5.84702,3.96021 -4.80485,3.63585 -9.23693,7.79493 -14.49739,10.80778 -2.55682,1.69648 -2.71246,1.74821 -5.13969,3.55831 -3.93738,2.9363 -7.41887,6.36651 -12.02512,8.34405 0,0 3.75879,-2.9202 3.75879,-2.9202 z"
     inkscape:connector-curvature="0" />
  <path
     style="fill:#ff0000;stroke-width:4.23500013;stroke-miterlimit:10;stroke-dasharray:none"
     id="path4361"
     d="m 239.56437,448.0914 c 0.4581,0.25577 0.92842,0.49078 1.37428,0.76732 1.82721,1.13327 3.53507,2.41386 5.43352,3.43985 2.34093,1.26512 3.15356,1.55055 5.66248,2.64149 5.29631,1.91411 10.68203,3.64155 16.11701,5.12495 3.90967,0.96526 7.68047,2.19744 11.30767,3.93932 2.6086,1.50268 5.23965,3.142 7.35377,5.31137 0,0 -4.05489,2.47463 -4.05489,2.47463 l 0,0 c -2.04589,-2.1464 -4.62138,-3.76985 -7.18866,-5.21337 -3.61595,-1.66672 -7.36712,-2.90977 -11.22678,-3.89751 -5.44048,-1.50002 -10.83396,-3.22549 -16.11928,-5.20172 -2.44054,-1.05325 -3.45672,-1.42711 -5.74786,-2.65223 -1.90189,-1.01698 -3.62027,-2.30367 -5.47264,-3.39564 -0.45323,-0.26718 -0.93166,-0.4891 -1.3975,-0.73365 0,0 3.95888,-2.60481 3.95888,-2.60481 z"
     inkscape:connector-curvature="0" />
  <path
     style="fill:#ff0000;stroke-width:4.23500013;stroke-miterlimit:10;stroke-dasharray:none"
     id="path4363"
     d="m 523.69016,377.84525 c 6.6658,2.56641 13.15676,5.53211 19.62798,8.54712 6.62738,3.26337 12.96782,7.04288 19.08261,11.17794 2.27131,1.58176 1.19108,0.85392 3.2332,2.19458 0,0 -3.95212,2.52872 -3.95212,2.52872 l 0,0 c -2.00593,-1.37659 -0.94665,-0.63324 -3.17146,-2.23911 -6.03425,-4.18348 -12.36457,-7.90656 -18.93925,-11.18129 -6.50346,-3.01341 -13.04523,-5.95311 -19.79142,-8.39016 0,0 3.91046,-2.6378 3.91046,-2.6378 z"
     inkscape:connector-curvature="0" />
  <path
     style="fill:#ff0000;stroke-width:4.23500013;stroke-miterlimit:10;stroke-dasharray:none"
     id="path4365"
     d="m 524.94094,393.2278 c 4.26099,-2.02835 8.7642,-3.5152 13.21198,-5.07709 4.81203,-1.80014 9.5285,-3.84664 14.4499,-5.33621 2.00533,-0.59968 4.01795,-1.14146 6.0006,-1.81218 0,0 -3.70022,2.8727 -3.70022,2.8727 l 0,0 c -1.98148,0.63588 -3.98659,1.17679 -5.97751,1.78267 -4.88869,1.5311 -9.59622,3.54719 -14.39934,5.31989 -4.48969,1.57864 -9.02892,3.10502 -13.30001,5.22154 0,0 3.7146,-2.97132 3.7146,-2.97132 z"
     inkscape:connector-curvature="0" />
  <path
     style="fill:#ff0000;stroke-width:4.23500013;stroke-miterlimit:10;stroke-dasharray:none"
     id="path4385"
     d="m 191.69264,253.16282 c 3.56173,2.60328 7.55928,4.57482 11.50602,6.52206 5.05314,2.55813 10.15149,5.02273 15.20293,7.58443 4.65639,2.12779 8.36924,5.49364 11.82784,9.17292 1.82968,1.80968 3.38754,3.84735 4.87668,5.93706 0,0 -4.21075,2.48168 -4.21075,2.48168 l 0,0 c -1.45198,-2.08934 -2.99896,-4.10317 -4.81689,-5.89411 -3.4087,-3.66419 -7.0724,-6.97692 -11.7103,-9.04781 -5.03905,-2.57353 -10.11925,-5.06181 -15.17987,-7.59227 -3.99782,-1.96952 -8.03685,-3.95605 -11.68477,-6.53267 0,0 4.18911,-2.63129 4.18911,-2.63129 z"
     inkscape:connector-curvature="0" />
  <path
     style="fill:#ff0000;stroke-width:4.23500013;stroke-miterlimit:10;stroke-dasharray:none"
     id="path4387"
     d="m 193.42943,278.32553 c 4.96514,-4.37679 10.87216,-7.46396 16.78769,-10.34723 4.81205,-2.23384 9.76458,-4.10552 14.74396,-5.92151 3.89905,-1.46792 7.68716,-3.19254 11.62172,-4.56667 1.78597,-0.3474 3.41627,-1.18796 5.1715,-1.62055 1.09928,-0.35905 2.29502,-0.13537 3.37761,-0.49923 0,0 -3.94193,3.01301 -3.94193,3.01301 l 0,0 c -1.11717,0.18889 -2.27023,0.15714 -3.36293,0.5023 -1.70889,0.51137 -3.36331,1.19781 -5.10393,1.61235 -3.91312,1.37344 -7.6799,3.10482 -11.5717,4.53541 -4.96131,1.80551 -9.88785,3.69256 -14.67435,5.93155 -0.92467,0.4551 -1.84934,0.9102 -2.77401,1.3653 0.5155,-0.35017 2.11027,-1.31606 1.5465,-1.0505 -2.67427,1.25969 -4.96464,3.36538 -7.24358,5.19853 0,0 -4.57655,1.84724 -4.57655,1.84724 z"
     inkscape:connector-curvature="0" />
  <text
     xml:space="preserve"
     style="font-style:normal;font-weight:normal;font-size:15px;line-height:125%;font-family:sans-serif;letter-spacing:0px;word-spacing:0px;fill:#ff0000;fill-opacity:1;stroke:none;stroke-width:1px;stroke-linecap:butt;stroke-linejoin:miter;stroke-opacity:1;"
     x="140"
     y="560"
     id="text4389"
     sodipodi:linespacing="125%"><tspan
       sodipodi:role="line"
       id="tspan4391"
       x="140"
       y="560"></tspan></text>
  <text
     xml:space="preserve"
     style="font-style:normal;font-weight:normal;font-size:12.5px;line-height:125%;font-family:sans-serif;letter-spacing:0px;word-spacing:0px;fill:#000000;fill-opacity:1;stroke:none;stroke-width:1px;stroke-linecap:butt;stroke-linejoin:miter;stroke-opacity:1;"
     x="140"
     y="557"
     id="text4393"
     sodipodi:linespacing="125%"><tspan
       sodipodi:role="line"
       id="tspan4395"
       x="140"
       y="557"></tspan></text>
  <text
     xml:space="preserve"
     style="font-style:normal;font-weight:normal;font-size:15px;line-height:125%;font-family:sans-serif;letter-spacing:0px;word-spacing:0px;fill:#000000;fill-opacity:1;stroke:none;stroke-width:1px;stroke-linecap:butt;stroke-linejoin:miter;stroke-opacity:1"
     x="141"
     y="557"
     id="text4397"
     sodipodi:linespacing="125%"><tspan
       sodipodi:role="line"
       id="tspan4399"
       x="141"
       y="557"></tspan></text>
  <text
     xml:space="preserve"
     style="font-style:normal;font-weight:normal;font-size:15px;line-height:125%;font-family:sans-serif;letter-spacing:0px;word-spacing:0px;fill:#000000;fill-opacity:1;stroke:none;stroke-width:1px;stroke-linecap:butt;stroke-linejoin:miter;stroke-opacity:1"
     x="138"
     y="562"
     id="text4401"
     sodipodi:linespacing="125%"><tspan
       sodipodi:role="line"
       id="tspan4403"
       x="138"
       y="562"></tspan></text>
  <text
     xml:space="preserve"
     style="font-style:normal;font-weight:normal;font-size:15px;line-height:125%;font-family:sans-serif;letter-spacing:0px;word-spacing:0px;fill:#000000;fill-opacity:1;stroke:none;stroke-width:1px;stroke-linecap:butt;stroke-linejoin:miter;stroke-opacity:1"
     x="138"
     y="557"
     id="text4405"
     sodipodi:linespacing="125%"><tspan
       sodipodi:role="line"
       id="tspan4407"
       x="138"
       y="557"
       style="font-style:normal;font-variant:normal;font-weight:bold;font-stretch:normal;font-size:12.5px;font-family:sans-serif;-inkscape-font-specification:'sans-serif Bold';fill:#ff0000">0.1</tspan></text>
  <text
     xml:space="preserve"
     style="font-style:normal;font-weight:normal;font-size:15px;line-height:125%;font-family:sans-serif;letter-spacing:0px;word-spacing:0px;fill:#000000;fill-opacity:1;stroke:none;stroke-width:1px;stroke-linecap:butt;stroke-linejoin:miter;stroke-opacity:1"
     x="305"
     y="494"
     id="text4427"
     sodipodi:linespacing="125%"><tspan
       sodipodi:role="line"
       id="tspan4429"
       x="305"
       y="494"
       style="font-style:normal;font-variant:normal;font-weight:bold;font-stretch:normal;font-size:12.5px;font-family:sans-serif;-inkscape-font-specification:'sans-serif Bold';fill:#ff0000">0.2</tspan></text>
  <text
     xml:space="preserve"
     style="font-style:normal;font-weight:normal;font-size:15px;line-height:125%;font-family:sans-serif;letter-spacing:0px;word-spacing:0px;fill:#000000;fill-opacity:1;stroke:none;stroke-width:1px;stroke-linecap:butt;stroke-linejoin:miter;stroke-opacity:1"
     x="356"
     y="496"
     id="text4431"
     sodipodi:linespacing="125%"><tspan
       sodipodi:role="line"
       id="tspan4433"
       x="356"
       y="496"
       style="font-style:normal;font-variant:normal;font-weight:bold;font-stretch:normal;font-size:15px;font-family:sans-serif;-inkscape-font-specification:'sans-serif Bold';fill:#ff0000">S</tspan></text>
  <text
     xml:space="preserve"
     style="font-style:normal;font-weight:normal;font-size:15px;line-height:125%;font-family:sans-serif;letter-spacing:0px;word-spacing:0px;fill:#000000;fill-opacity:1;stroke:none;stroke-width:1px;stroke-linecap:butt;stroke-linejoin:miter;stroke-opacity:1"
     x="357.60205"
     y="556.46021"
     id="text4431-7"
     sodipodi:linespacing="125%"><tspan
       sodipodi:role="line"
       id="tspan4433-5"
       x="357.60205"
       y="556.46021"
       style="font-style:normal;font-variant:normal;font-weight:bold;font-stretch:normal;font-size:15px;font-family:sans-serif;-inkscape-font-specification:'sans-serif Bold';fill:#ff0000">S</tspan></text>
  <text
     xml:space="preserve"
     style="font-style:normal;font-weight:normal;font-size:15px;line-height:125%;font-family:sans-serif;letter-spacing:0px;word-spacing:0px;fill:#000000;fill-opacity:1;stroke:none;stroke-width:1px;stroke-linecap:butt;stroke-linejoin:miter;stroke-opacity:1"
     x="143.60205"
     y="310.46021"
     id="text4431-7-6"
     sodipodi:linespacing="125%"><tspan
       sodipodi:role="line"
       id="tspan4433-5-2"
       x="143.60205"
       y="310.46021"
       style="font-style:normal;font-variant:normal;font-weight:bold;font-stretch:normal;font-size:15px;font-family:sans-serif;-inkscape-font-specification:'sans-serif Bold';fill:#008000">S</tspan></text>
  <text
     xml:space="preserve"
     style="font-style:normal;font-weight:normal;font-size:15px;line-height:125%;font-family:sans-serif;letter-spacing:0px;word-spacing:0px;fill:#000000;fill-opacity:1;stroke:none;stroke-width:1px;stroke-linecap:butt;stroke-linejoin:miter;stroke-opacity:1"
     x="591.60938"
     y="373.46021"
     id="text4431-9"
     sodipodi:linespacing="125%"><tspan
       sodipodi:role="line"
       id="tspan4433-1"
       x="591.60938"
       y="373.46021"
       style="font-style:normal;font-variant:normal;font-weight:bold;font-stretch:normal;font-size:15px;font-family:sans-serif;-inkscape-font-specification:'sans-serif Bold';fill:#ff0000">M</tspan></text>
  <path
     style="fill:#b3e3ff;fill-opacity:1;stroke-width:4.23500013;stroke-miterlimit:10;stroke-dasharray:none"
     d="m 141.54097,563.35215 c -3.83636,-2.38093 -5.8728,-6.48593 -5.8728,-11.83823 0,-4.14178 0.4708,-5.18416 3.88235,-8.59571 3.52104,-3.52104 4.36958,-3.88235 9.11765,-3.88235 4.74807,0 5.59661,0.36131 9.11765,3.88235 3.41154,3.41155 3.88235,4.45393 3.88235,8.59571 0,8.38444 -5.03022,13.54507 -13.15429,13.49533 -2.39014,-0.0146 -5.52795,-0.76033 -6.97291,-1.6571 z m 4.72843,-8.86361 c 1.24855,-4.9746 -2.79773,-9.19435 -6.14922,-6.41285 -2.00455,1.66362 -1.87555,7.62376 0.19002,8.77972 2.45432,1.3735 5.30455,0.24145 5.9592,-2.36687 z m 4.39877,1.04732 c 0,-0.825 -0.675,-1.5 -1.5,-1.5 -0.825,0 -1.5,0.675 -1.5,1.5 0,0.825 0.675,1.5 1.5,1.5 0.825,0 1.5,-0.675 1.5,-1.5 z m 9,0.5 c 0,-0.55 -0.45,-1 -1,-1 -0.55,0 -1,-1.8 -1,-4 0,-4.12838 -1.12178,-4.94407 -4,-2.90856 -1.12881,0.79831 -1.19068,1.18633 -0.25,1.56802 1.47948,0.60032 1.70138,5.34054 0.25,5.34054 -0.55,0 -1,0.45 -1,1 0,0.55 1.575,1 3.5,1 1.925,0 3.5,-0.45 3.5,-1 z"
     id="path4499"
     inkscape:connector-curvature="0" />
  <path
     style="fill:#b3e3ff;fill-opacity:1;stroke-width:4.23500013;stroke-miterlimit:10;stroke-dasharray:none"
     d="m 309.93786,502.55327 c -4.1713,-1.81338 -7.26221,-6.92818 -7.26221,-12.01741 0,-13.23463 17.26494,-18.17102 24.56837,-7.02459 2.15935,3.29559 2.1738,10.73153 0.0272,14.00763 -3.83164,5.84781 -10.80398,7.87288 -17.33338,5.03437 z m 3.33154,-11.06473 c 1.24855,-4.9746 -2.79773,-9.19435 -6.14922,-6.41285 -2.00455,1.66362 -1.87555,7.62376 0.19002,8.77972 2.45432,1.3735 5.30455,0.24145 5.9592,-2.36687 z m 4.39877,1.04732 c 0,-0.825 -0.675,-1.5 -1.5,-1.5 -0.825,0 -1.5,0.675 -1.5,1.5 0,0.825 0.675,1.5 1.5,1.5 0.825,0 1.5,-0.675 1.5,-1.5 z m 9,0.5 c 0,-0.55 -0.74474,-1 -1.65499,-1 -1.53998,0 -1.53998,-0.12708 0,-1.82874 0.91025,-1.00581 1.65499,-2.30071 1.65499,-2.87756 0,-1.97607 -2.94384,-3.52461 -5.48701,-2.88632 -2.99312,0.75123 -3.35747,2.59262 -0.51299,2.59262 1.1,0 2,0.38026 2,0.84501 0,0.46476 -0.9,1.6595 -2,2.65499 -2.94577,2.66589 -2.46914,3.5 2,3.5 2.2,0 4,-0.45 4,-1 z"
     id="path4501"
     inkscape:connector-curvature="0" />
  <path
     style="fill:#b3e3ff;fill-opacity:1;stroke-width:4.23500013;stroke-miterlimit:10;stroke-dasharray:none"
     d="m 593.66817,380.3824 c -2.38927,-0.95747 -6.06894,-4.61382 -7.59501,-7.54688 -5.55187,-10.67051 8.1507,-23.25858 18.35415,-16.86132 8.09572,5.07577 9.42179,14.3474 2.97419,20.79499 -2.69897,2.69897 -4.47022,3.56654 -7.8588,3.8493 -2.40599,0.20076 -5.04953,0.0945 -5.87453,-0.23609 z m 2.06768,-9.59654 c 0.0638,-3.06547 0.12929,-3.12225 1.15281,-1 1.18577,2.45865 3.31953,2.9769 4.11723,1 0.27741,-0.6875 0.53991,-0.2375 0.58333,1 0.0546,1.55702 0.69493,2.25 2.07895,2.25 1.77778,0 2,-0.66667 2,-6 0,-5.66081 -0.1352,-6 -2.39159,-6 -1.774,0 -2.57092,0.71015 -3.08602,2.75 l -0.69442,2.75 -1.44592,-2.75 c -0.83005,-1.57866 -2.2842,-2.75 -3.41399,-2.75 -1.73874,0 -1.96806,0.69912 -1.96806,6 0,4.66667 0.33333,6 1.5,6 1.01176,0 1.52203,-1.05786 1.56768,-3.25 z"
     id="path4503"
     inkscape:connector-curvature="0" />
</svg>
